
<svg xmlns="http://www.w3.org/2000/svg" xmlns:xlink="http://www.w3.org/1999/xlink" width="214px" height="214px" viewBox="0 0 214 214" version="1.1">
<g id="surface1">
<path style="fill:none;stroke-width:3;stroke-linecap:round;stroke-linejoin:round;stroke:rgb(9.019608%,65.882355%,47.450981%);stroke-opacity:1;stroke-miterlimit:4;" d="M 32.018692 46.588785 C 28.807243 42.558411 38.377336 39.026869 37.752336 36.005841 C 34.883178 24.808411 29.370327 25.296729 26.501168 36.492991 C 25.808411 39.578271 32.14486 39.010514 29.001168 42.977804 Z M 49.595794 55.905374 C 44.244159 58.234813 38.950935 54.521028 34.417056 49.483645 C 47.636682 32.935748 40.283879 24.037383 32.018692 24.037383 C 25.031542 24.037383 21.183411 29.955607 22.695093 36.824766 C 23.577103 40.538551 25.905374 44.76285 29.620327 49.483645 C 25.481308 54.071262 21.917056 56.188084 18.786215 56.471963 C 12.425234 57.417056 7.448598 51.247664 9.714953 44.882009 C 11.636682 39.899533 23.929907 15.468458 24.457944 14.148364 C 26.461449 10.32243 27.709112 6.844626 32.01285 6.844626 C 36.127336 6.844626 37.533879 10.146028 39.693925 14.462617 C 44.273364 23.44743 51.061916 37.043224 54.304907 44.882009 C 55.98014 49.089953 54.130841 53.952103 49.595794 55.905374 Z M 55.575935 38.586449 C 39.17757 3.686916 38.26986 3.186916 32.018692 3.186916 C 26.227804 3.186916 23.765187 7.216121 21.247664 12.448598 C 7.740654 39.461449 6.431075 43.28972 6.317757 43.622664 C 3.109813 52.443925 9.720794 60.186916 17.721963 60.186916 C 20.483645 60.186916 25.433411 59.415888 32.018692 52.247664 C 39.484813 60.36215 44.901869 60.186916 46.315421 60.186916 C 54.317757 60.192757 60.928738 52.443925 57.71729 43.622664 C 57.719626 43.127336 55.577103 38.672897 55.577103 38.586449 Z M 55.575935 38.586449 " transform="matrix(3.34375,0,0,3.34375,0,0)"/>
<path style=" stroke:none;fill-rule:nonzero;fill:rgb(49.803922%,49.803922%,100%);fill-opacity:1;" d="M 107.0625 155.78125 C 96.324219 142.304688 128.324219 130.496094 126.234375 120.394531 C 116.640625 82.953125 98.207031 84.585938 88.613281 122.023438 C 86.296875 132.339844 107.484375 130.441406 96.972656 143.707031 Z M 165.835938 186.933594 C 147.941406 194.722656 130.242188 182.304688 115.082031 165.460938 C 159.285156 110.128906 134.699219 80.375 107.0625 80.375 C 83.699219 80.375 70.832031 100.164062 75.886719 123.132812 C 78.835938 135.550781 86.621094 149.675781 99.042969 165.460938 C 85.203125 180.800781 73.285156 187.878906 62.816406 188.828125 C 41.546875 191.988281 24.90625 171.359375 32.484375 150.074219 C 38.910156 133.414062 80.015625 51.722656 81.78125 47.308594 C 88.480469 34.515625 92.652344 22.886719 107.042969 22.886719 C 120.800781 22.886719 125.503906 33.925781 132.726562 48.359375 C 148.039062 78.402344 170.738281 123.863281 181.582031 150.074219 C 187.183594 164.144531 181 180.402344 165.835938 186.933594 Z M 185.832031 129.023438 C 131 12.328125 127.964844 10.65625 107.0625 10.65625 C 87.699219 10.65625 79.464844 24.128906 71.046875 41.625 C 25.882812 131.949219 21.503906 144.75 21.125 145.863281 C 10.398438 175.359375 32.503906 201.25 59.257812 201.25 C 68.492188 201.25 85.042969 198.671875 107.0625 174.703125 C 132.027344 201.835938 150.140625 201.25 154.867188 201.25 C 181.625 201.269531 203.730469 175.359375 192.992188 145.863281 C 193 144.207031 185.835938 129.3125 185.835938 129.023438 Z M 185.832031 129.023438 "/>
</g>
</svg>
