
<svg xmlns="http://www.w3.org/2000/svg" xmlns:xlink="http://www.w3.org/1999/xlink" width="256px" height="256px" viewBox="0 0 256 256" version="1.1">
<g id="surface1">
<path style=" stroke:none;fill-rule:nonzero;fill:rgb(49.803922%,49.803922%,100%);fill-opacity:1;" d="M 128.003906 187.605469 C 115.15625 171.488281 153.4375 157.359375 150.933594 145.273438 C 139.457031 100.488281 131.574219 102.4375 120.097656 147.222656 C 117.324219 159.566406 128.507812 157.292969 115.933594 173.160156 Z M 198.3125 224.875 C 176.90625 234.191406 155.730469 219.335938 137.597656 199.1875 C 190.472656 132.992188 161.0625 97.402344 128.003906 97.402344 C 100.050781 97.402344 84.664062 121.074219 90.707031 148.550781 C 94.234375 163.40625 103.550781 180.300781 118.410156 199.1875 C 101.855469 217.535156 87.59375 226.003906 75.074219 227.136719 C 49.628906 230.917969 29.722656 206.242188 38.789062 180.78125 C 46.472656 160.851562 95.644531 63.125 97.757812 57.84375 C 105.773438 42.539062 110.765625 28.632812 127.976562 28.632812 C 144.4375 28.632812 150.066406 41.832031 158.703125 59.101562 C 177.023438 95.042969 204.171875 149.425781 217.144531 180.78125 C 223.847656 197.609375 216.449219 217.0625 198.3125 224.875 Z M 222.230469 155.597656 C 156.640625 16 153.007812 14 128.003906 14 C 104.835938 14 94.988281 30.117188 84.917969 51.042969 C 30.890625 159.09375 25.652344 174.410156 25.199219 175.742188 C 12.363281 211.027344 38.808594 242 70.816406 242 C 81.863281 242 101.660156 238.914062 128.003906 210.242188 C 157.867188 242.699219 179.535156 242 185.191406 242 C 217.195312 242.023438 243.640625 211.027344 230.796875 175.742188 C 230.804688 173.761719 222.234375 155.945312 222.234375 155.597656 Z M 222.230469 155.597656 "/>
</g>
</svg>
