<?xml version="1.0" encoding="UTF-8" standalone="no"?>
<svg
   xmlns:dc="http://purl.org/dc/elements/1.1/"
   xmlns:cc="http://creativecommons.org/ns#"
   xmlns:rdf="http://www.w3.org/1999/02/22-rdf-syntax-ns#"
   xmlns:svg="http://www.w3.org/2000/svg"
   xmlns="http://www.w3.org/2000/svg"
   xmlns:sodipodi="http://sodipodi.sourceforge.net/DTD/sodipodi-0.dtd"
   xmlns:inkscape="http://www.inkscape.org/namespaces/inkscape"
   width="355px"
   height="355px"
   viewBox="0 0 355 355"
   version="1.1"
   id="svg5"
   sodipodi:docname="a-symbolic.svg"
   inkscape:version="1.0.2 (e86c870879, 2021-01-15, custom)">
  <metadata
     id="metadata11">
    <rdf:RDF>
      <cc:Work
         rdf:about="">
        <dc:format>image/svg+xml</dc:format>
        <dc:type
           rdf:resource="http://purl.org/dc/dcmitype/StillImage" />
        <dc:title></dc:title>
      </cc:Work>
    </rdf:RDF>
  </metadata>
  <defs
     id="defs9" />
  <sodipodi:namedview
     pagecolor="#ffffff"
     bordercolor="#666666"
     borderopacity="1"
     objecttolerance="10"
     gridtolerance="10"
     guidetolerance="10"
     inkscape:pageopacity="0"
     inkscape:pageshadow="2"
     inkscape:window-width="1920"
     inkscape:window-height="1023"
     id="namedview7"
     showgrid="false"
     inkscape:zoom="2.3633803"
     inkscape:cx="177.5"
     inkscape:cy="177.5"
     inkscape:window-x="0"
     inkscape:window-y="0"
     inkscape:window-maximized="1"
     inkscape:current-layer="svg5" />
  <g
     id="surface1">
    <path
       style=" stroke:none;fill-rule:nonzero;fill:rgb(49.803922%,49.803922%,100%);fill-opacity:1;"
       d="M 249.089844 234.503906 C 195.203125 262.023438 139.75 287.851562 80.875 301.609375 C 61.898438 301.515625 71.261719 275.988281 74.328125 264.421875 C 89.046875 215.285156 111.875 169.289062 133.582031 123.160156 C 142.175781 108.585938 148.269531 88.5 165.601562 82.890625 C 182.433594 80.960938 193.492188 97.777344 202.210938 110.046875 C 237.863281 166.457031 271.527344 224.34375 301.058594 284.417969 C 308.527344 300.074219 315.859375 315.800781 323.105469 331.578125 C 301.546875 240.675781 272.535156 150.507812 225.765625 69.828125 C 215.28125 53.894531 205.738281 36.601562 191.585938 23.785156 C 177.800781 12.847656 160.851562 24.621094 150.660156 35.210938 C 118.640625 68.378906 99.148438 111.660156 80.035156 153.453125 C 57.753906 202.914062 43.132812 255.640625 32.402344 308.890625 C 28.640625 326.832031 46.496094 339.851562 62.363281 334.285156 C 106.320312 324.84375 147.625 305.03125 186.496094 282.292969 C 208.898438 268.699219 230.445312 253.265625 249.082031 234.5 Z M 249.089844 234.503906 "
       id="path2" />
  </g>
</svg>
